<?xml version="1.0" encoding="UTF-8"?>
<svg width="140px" height="28px" viewBox="0 0 140 28" version="1.1" xmlns="http://www.w3.org/2000/svg" xmlns:xlink="http://www.w3.org/1999/xlink">
    <!-- Generator: Sketch 51.1 (57501) - http://www.bohemiancoding.com/sketch -->
    <title>forward</title>
    <desc>Created with Sketch.</desc>
    <defs></defs>
    <g id="Page-1" stroke="none" stroke-width="1" fill="none" fill-rule="evenodd">
        <g id="Каталог" transform="translate(-41.000000, -32.000000)" fill="#FF7647">
            <path d="M52.1091703,35.675 C48.8951804,35.675 47.2882096,37.2791506 47.2882096,40.4875 L47.2882096,41.3975 L50.7991266,41.3975 C51.2998569,41.3975 51.7278003,41.5754149 52.0829694,41.93125 C52.4381386,42.2870851 52.6157205,42.7158308 52.6157205,43.2175 C52.6157205,43.7308359 52.4381386,44.1654149 52.0829694,44.52125 C51.7278003,44.8770851 51.2998569,45.055 50.7991266,45.055 L47.2882096,45.055 L47.2882096,58.18 C47.2882096,58.4250012 47.2416307,58.6583322 47.1484716,58.88 C47.0553125,59.1016678 46.9272206,59.2970825 46.7641921,59.46625 C46.6011637,59.6354175 46.4090259,59.7666662 46.1877729,59.86 C45.96652,59.9533338 45.7278033,60 45.4716157,60 C45.2154281,60 44.9767114,59.9533338 44.7554585,59.86 C44.5342056,59.7666662 44.3420678,59.6354175 44.1790393,59.46625 C44.0160108,59.2970825 43.887919,59.1016678 43.7947598,58.88 C43.7016007,58.6583322 43.6550218,58.4250012 43.6550218,58.18 L43.6550218,45.055 L42.8165939,45.055 C42.2925738,45.055 41.8588081,44.8800017 41.5152838,44.53 C41.1717596,44.1799982 41,43.7425026 41,43.2175 C41,42.6924974 41.1717596,42.2579184 41.5152838,41.91375 C41.8588081,41.5695816 42.2925738,41.3975 42.8165939,41.3975 L43.6550218,41.3975 L43.6550218,40.4875 C43.6550218,34.8408051 46.4730431,32.0175 52.1091703,32.0175 C52.6099006,32.0175 53.0378439,32.1954149 53.3930131,32.55125 C53.7481823,32.9070851 53.9257642,33.3358308 53.9257642,33.8375 C53.9257642,34.3508359 53.7481823,34.7854149 53.3930131,35.14125 C53.0378439,35.4970851 52.6099006,35.675 52.1091703,35.675 Z M74.7991266,50.2 C74.7991266,52.9300136 73.8442599,55.2399905 71.9344978,57.13 C70.0014459,59.0433429 67.6957921,60 65.0174672,60 C62.3158526,60 60.0101988,59.0433429 58.1004367,57.13 C56.1906746,55.2166571 55.2358079,52.9066802 55.2358079,50.2 C55.2358079,47.4933198 56.1906746,45.1833429 58.1004367,43.27 C60.0101988,41.3566571 62.3158526,40.4 65.0174672,40.4 C67.6957921,40.4 70.0014459,41.3566571 71.9344978,43.27 C72.8893789,44.2266714 73.6026177,45.2824942 74.0742358,46.4375 C74.5458539,47.5925058 74.7874817,48.8466599 74.7991266,50.2 Z M65.0174672,44.0575 C64.1557453,44.0575 63.3522599,44.2208317 62.6069869,44.5475 C61.8617139,44.8741683 61.2154321,45.3145806 60.6681223,45.86875 C60.1208124,46.4229194 59.6870467,47.0733296 59.3668122,47.82 C59.0465777,48.5666704 58.8864629,49.3599958 58.8864629,50.2 C58.8864629,51.0400042 59.0465777,51.8333296 59.3668122,52.58 C59.6870467,53.3266704 60.1208124,53.9770806 60.6681223,54.53125 C61.2154321,55.0854194 61.8617139,55.5258317 62.6069869,55.8525 C63.3522599,56.1791683 64.1557453,56.3425 65.0174672,56.3425 C65.8675443,56.3425 66.6652073,56.1791683 67.4104803,55.8525 C68.1557534,55.5258317 68.8049463,55.0825028 69.3580786,54.5225 C69.9112109,53.9624972 70.3478878,53.312087 70.6681223,52.57125 C70.9883568,51.830413 71.1484716,51.0400042 71.1484716,50.2 C71.1484716,49.3599958 70.9883568,48.569587 70.6681223,47.82875 C70.3478878,47.087913 69.9112109,46.4375028 69.3580786,45.8775 C68.8049463,45.3174972 68.1557534,44.8741683 67.4104803,44.5475 C66.6652073,44.2208317 65.8675443,44.0575 65.0174672,44.0575 Z M81.1746725,42.22 L81.1746725,42.57 C82.0480393,41.8699965 82.9970837,41.3333352 84.0218341,40.96 C85.0465845,40.5866648 86.1411878,40.4 87.3056769,40.4 C87.8180521,40.4 88.3682649,40.4349996 88.9563319,40.505 C89.5443989,40.5750003 90.0858782,40.7004158 90.580786,40.88125 C91.0756939,41.0620842 91.4861701,41.3099984 91.8122271,41.625 C92.138284,41.9400016 92.30131,42.3483308 92.30131,42.85 C92.30131,43.1066679 92.25182,43.3458322 92.1528384,43.5675 C92.0538569,43.7891678 91.9228538,43.9845825 91.7598253,44.15375 C91.5967969,44.3229175 91.404659,44.4541662 91.1834061,44.5475 C90.9621532,44.6408338 90.7234365,44.6875 90.4672489,44.6875 C90.245996,44.6875 89.9898122,44.623334 89.69869,44.495 C88.9650618,44.2033319 88.1673988,44.0575 87.3056769,44.0575 C86.4555998,44.0575 85.6579368,44.2179151 84.9126638,44.53875 C84.1673907,44.8595849 83.5181978,45.2970806 82.9650655,45.85125 C82.4119332,46.4054194 81.9752563,47.0558296 81.6550218,47.8025 C81.3347873,48.5491704 81.1746725,49.3483291 81.1746725,50.2 L81.1746725,58.18 C81.1746725,58.6816692 80.9970906,59.1104149 80.6419214,59.46625 C80.2867522,59.8220851 79.8588089,60 79.3580786,60 C78.8457034,60 78.4119377,59.8220851 78.0567686,59.46625 C77.7015994,59.1104149 77.5240175,58.6816692 77.5240175,58.18 L77.5240175,42.22 C77.5240175,41.7183308 77.7015994,41.2895851 78.0567686,40.93375 C78.4119377,40.5779149 78.8457034,40.4 79.3580786,40.4 C79.8588089,40.4 80.2867522,40.5779149 80.6419214,40.93375 C80.9970906,41.2895851 81.1746725,41.7183308 81.1746725,42.22 Z M106.868996,40.4 C107.730718,40.4 108.312953,40.8491622 108.615721,41.7475 L112.161572,52.405 L115.829694,41.415 C115.922853,41.1116651 116.109169,40.8666676 116.388646,40.68 C116.668124,40.4933324 117.02911,40.4 117.471616,40.4 C117.727803,40.4 117.96652,40.4466662 118.187773,40.54 C118.409026,40.6333338 118.601164,40.7645825 118.764192,40.93375 C118.927221,41.1029175 119.058224,41.2983322 119.157205,41.52 C119.256187,41.7416678 119.305677,41.9749988 119.305677,42.22 C119.305677,42.4416678 119.259098,42.6749988 119.165939,42.92 L113.873362,58.8275 C113.768558,59.165835 113.576421,59.4458322 113.296943,59.6675 C113.017466,59.8891678 112.639013,60 112.161572,60 C111.754001,60 111.393015,59.8833345 111.078603,59.65 C110.764191,59.4166655 110.560408,59.1425016 110.467249,58.8275 L106.868996,48.0125 L103.270742,58.8275 C103.165938,59.165835 102.956333,59.4458322 102.641921,59.6675 C102.327509,59.8891678 101.966523,60 101.558952,60 C101.151381,60 100.793306,59.8891678 100.484716,59.6675 C100.176127,59.4458322 99.9636105,59.165835 99.8471616,58.8275 L94.5545852,42.92 C94.4730709,42.663332 94.4323144,42.430001 94.4323144,42.22 C94.4323144,41.9749988 94.4788933,41.7416678 94.5720524,41.52 C94.6652115,41.2983322 94.7933034,41.1029175 94.9563319,40.93375 C95.1193603,40.7645825 95.3114982,40.6333338 95.5327511,40.54 C95.754004,40.4466662 95.9927207,40.4 96.2489083,40.4 C96.6681244,40.4 97.020377,40.4991657 97.3056769,40.6975 C97.5909767,40.8958343 97.7860257,41.1349986 97.8908297,41.415 L101.558952,52.3875 L105.104803,41.7475 C105.407571,40.8491622 105.995629,40.4 106.868996,40.4 Z M132.091703,44.0575 C131.229981,44.0575 130.426496,44.2208317 129.681223,44.5475 C128.93595,44.8741683 128.289668,45.3145806 127.742358,45.86875 C127.195048,46.4229194 126.761283,47.0733296 126.441048,47.82 C126.120814,48.5666704 125.960699,49.3599958 125.960699,50.2 C125.960699,51.0400042 126.120814,51.8333296 126.441048,52.58 C126.761283,53.3266704 127.195048,53.9770806 127.742358,54.53125 C128.289668,55.0854194 128.93595,55.5258317 129.681223,55.8525 C130.426496,56.1791683 131.229981,56.3425 132.091703,56.3425 C132.94178,56.3425 133.739443,56.1791683 134.484716,55.8525 C135.229989,55.5258317 135.879182,55.0825028 136.432314,54.5225 C136.985447,53.9624972 137.422124,53.312087 137.742358,52.57125 C138.062593,51.830413 138.222707,51.0400042 138.222707,50.2 C138.222707,49.3599958 138.062593,48.569587 137.742358,47.82875 C137.422124,47.087913 136.985447,46.4375028 136.432314,45.8775 C135.879182,45.3174972 135.229989,44.8741683 134.484716,44.5475 C133.739443,44.2208317 132.94178,44.0575 132.091703,44.0575 Z M138.222707,58.18 L138.222707,57.83 C137.349341,58.5300035 136.400296,59.0666648 135.375546,59.44 C134.350795,59.8133352 133.256192,60 132.091703,60 C129.390088,60 127.084435,59.0433429 125.174672,57.13 C123.26491,55.2166571 122.310044,52.9066802 122.310044,50.2 C122.310044,47.4933198 123.26491,45.1833429 125.174672,43.27 C127.084435,41.3566571 129.390088,40.4 132.091703,40.4 C134.770028,40.4 137.075682,41.3566571 139.008734,43.27 C140.918496,45.1833429 141.873362,47.4933198 141.873362,50.2 L141.873362,58.18 C141.873362,58.6816692 141.695781,59.1104149 141.340611,59.46625 C140.985442,59.8220851 140.557499,60 140.056769,60 C139.544393,60 139.110628,59.8220851 138.755459,59.46625 C138.400289,59.1104149 138.222707,58.6816692 138.222707,58.18 Z M148.248908,42.22 L148.248908,42.57 C149.122275,41.8699965 150.071319,41.3333352 151.09607,40.96 C152.12082,40.5866648 153.215424,40.4 154.379913,40.4 C154.892288,40.4 155.442501,40.4349996 156.030568,40.505 C156.618635,40.5750003 157.160114,40.7004158 157.655022,40.88125 C158.14993,41.0620842 158.560406,41.3099984 158.886463,41.625 C159.21252,41.9400016 159.375546,42.3483308 159.375546,42.85 C159.375546,43.1066679 159.326056,43.3458322 159.227074,43.5675 C159.128093,43.7891678 158.99709,43.9845825 158.834061,44.15375 C158.671033,44.3229175 158.478895,44.4541662 158.257642,44.5475 C158.036389,44.6408338 157.797672,44.6875 157.541485,44.6875 C157.320232,44.6875 157.064048,44.623334 156.772926,44.495 C156.039298,44.2033319 155.241635,44.0575 154.379913,44.0575 C153.529836,44.0575 152.732173,44.2179151 151.9869,44.53875 C151.241627,44.8595849 150.592434,45.2970806 150.039301,45.85125 C149.486169,46.4054194 149.049492,47.0558296 148.729258,47.8025 C148.409023,48.5491704 148.248908,49.3483291 148.248908,50.2 L148.248908,58.18 C148.248908,58.6816692 148.071326,59.1104149 147.716157,59.46625 C147.360988,59.8220851 146.933045,60 146.432314,60 C145.919939,60 145.486174,59.8220851 145.131004,59.46625 C144.775835,59.1104149 144.598253,58.6816692 144.598253,58.18 L144.598253,42.22 C144.598253,41.7183308 144.775835,41.2895851 145.131004,40.93375 C145.486174,40.5779149 145.919939,40.4 146.432314,40.4 C146.933045,40.4 147.360988,40.5779149 147.716157,40.93375 C148.071326,41.2895851 148.248908,41.7183308 148.248908,42.22 Z M177.349345,50.2 C177.349345,49.3599958 177.18923,48.569587 176.868996,47.82875 C176.548761,47.087913 176.112084,46.4375028 175.558952,45.8775 C175.00582,45.3174972 174.356627,44.8741683 173.611354,44.5475 C172.866081,44.2208317 172.068418,44.0575 171.218341,44.0575 C170.356619,44.0575 169.553133,44.2208317 168.80786,44.5475 C168.062587,44.8741683 167.416306,45.3145806 166.868996,45.86875 C166.321686,46.4229194 165.88792,47.0733296 165.567686,47.82 C165.247451,48.5666704 165.087336,49.3599958 165.087336,50.2 C165.087336,51.0400042 165.247451,51.8333296 165.567686,52.58 C165.88792,53.3266704 166.321686,53.9770806 166.868996,54.53125 C167.416306,55.0854194 168.062587,55.5258317 168.80786,55.8525 C169.553133,56.1791683 170.356619,56.3425 171.218341,56.3425 C172.068418,56.3425 172.866081,56.1791683 173.611354,55.8525 C174.356627,55.5258317 175.00582,55.0825028 175.558952,54.5225 C176.112084,53.9624972 176.548761,53.312087 176.868996,52.57125 C177.18923,51.830413 177.349345,51.0400042 177.349345,50.2 Z M171.218341,40.4 C173.535674,40.4 175.579322,41.1174928 177.349345,42.5525 L177.349345,33.82 C177.349345,33.2949974 177.521105,32.8604184 177.864629,32.51625 C178.208153,32.1720816 178.641919,32 179.165939,32 C179.678314,32 180.11208,32.1720816 180.467249,32.51625 C180.822418,32.8604184 181,33.2949974 181,33.82 L181,50.2 C181,52.9300136 180.045133,55.2399905 178.135371,57.13 C176.202319,59.0433429 173.896666,60 171.218341,60 C168.516726,60 166.211072,59.0433429 164.30131,57.13 C162.391548,55.2166571 161.436681,52.9066802 161.436681,50.2 C161.436681,47.4933198 162.391548,45.1833429 164.30131,43.27 C166.211072,41.3566571 168.516726,40.4 171.218341,40.4 Z" id="forward"></path>
        </g>
    </g>
</svg>